PathFileType	4	(X/Y/Z)	16_2_107_p1_0-224_filt_butterworth.trc
DataRate	CameraRate	NumFrames	NumMarkers	Units	OrigDataRate	OrigDataStartFrame	OrigNumFrames
59.0	59.0	7	27	m	59.0	0	224
Frame#	Time	RHip			RKnee			RAnkle			RBigToe			RSmallToe			RHeel			LHip			LKnee			LAnkle			LBigToe			LSmallToe			LHeel			Neck			Head			Nose			RShoulder			RElbow			RWrist			RThumb			RIndex			RPinky			LShoulder			LElbow			LWrist			LThumb			LIndex			LPinky			
		X1	Y1	Z1	X2	Y2	Z2	X3	Y3	Z3	X4	Y4	Z4	X5	Y5	Z5	X6	Y6	Z6	X7	Y7	Z7	X8	Y8	Z8	X9	Y9	Z9	X10	Y10	Z10	X11	Y11	Z11	X12	Y12	Z12	X13	Y13	Z13	X14	Y14	Z14	X15	Y15	Z15	X16	Y16	Z16	X17	Y17	Z17	X18	Y18	Z18	X19	Y19	Z19	X20	Y20	Z20	X21	Y21	Z21	X22	Y22	Z22	X23	Y23	Z23	X24	Y24	Z24	X25	Y25	Z25	X26	Y26	Z26	X27	Y27	Z27	
0	0.0	0.3044640222130434	0.49298068941855655	0.5229232267877431	0.2973850995957958	0.6302573212263838	0.9621213932877377	0.2728490224807344	0.7161621871904654	1.3707806146269055	0.2323378486949857	0.43397884865311953	1.3624985214120495	0.30529246537552196	0.4794914376141911	1.3762199919540004	0.24972827174119824	0.7951045343840984	1.4308024658593244	0.0858256324299128	0.5230202847751977	0.5290476951367329	0.08289516937095558	0.6330420158831371	0.951683973867095	0.1016891981331285	0.7161970634020653	1.355844050390979	0.06472725142766891	0.4498411069362147	1.3605475564247134	0.005569126532156115	0.5380996349953622	1.3776257976581332	0.12361335982548155	0.7928689208143664	1.4313792144557298	0.2250444095520661	0.46177385545514266	-0.13838041636847528	0.26234851786664315	0.37456813382308785	-0.3841693536059789	0.23752741206984385	0.3165988519052745	-0.24500458251232549	0.3865080591952757	0.4636953984330283	-0.04695520098627074	0.4398570976414061	0.44621283437293663	0.23797226049929343	0.23921073214883323	0.30554506440328266	0.3672185572916167	0.16425963377881345	0.24432342875137703	0.3609713711379166	0.17271531999061623	0.23822638477231267	0.42342285377727173	0.19475042149394958	0.24188285552220545	0.447930321618653	0.03432371136983498	0.4686566393207257	-0.06861894029980123	-0.020177227055247007	0.4053162931242747	0.20662685241162462	0.1419518402601371	0.24474446594104393	0.36598134477558286	0.22072332294913818	0.2129334247885985	0.37144899311203444	0.2798098301390698	0.21862898012049067	0.4421574243605282	0.25751986790641046	0.1979297311020034	0.46864821875740065
1	0.0169491525423728	0.3062554438111704	0.49350812846447	0.5234933339593483	0.2973944981523543	0.6301906537122385	0.9620663235106875	0.2745548710786231	0.7167086686935462	1.3710745594552425	0.2340749408423689	0.43871355389190464	1.3645898858081076	0.3061739884490618	0.4757398408356767	1.374336992845173	0.24945230987116923	0.7948781935249934	1.430289155042305	0.08720910058660902	0.5142521716699708	0.5254008768798765	0.08479913808550703	0.6412999145277485	0.954246102233159	0.10106189320147668	0.7163439838384408	1.3578606050685538	0.0648634613249177	0.44977002952327283	1.3603519119910854	0.007073774114610286	0.5455152865574726	1.3816523891362051	0.12300487762435648	0.7932265282975022	1.4341310212469887	0.22498909222679703	0.46171783920958037	-0.13831958733113559	0.2623627967844383	0.3743781592437114	-0.3841457446584983	0.24129175309466921	0.321410865678424	-0.24542995825844355	0.3864492349285006	0.46359459252909585	-0.046981518068497596	0.4422588043807841	0.4421085090540915	0.2374814617493431	0.24135882723905874	0.30652251996936775	0.3651934568180121	0.16496047048678308	0.23843370048920318	0.3600876052390096	0.1896191230404398	0.23206387590850056	0.43069489233368036	0.17833335030862324	0.24614873524027117	0.43490787094344063	0.03203864267404951	0.47518914123224565	-0.0674477548591134	-0.020469590017048615	0.4046881221877876	0.2036584581742094	0.14088295368971343	0.24129728434228134	0.3630555329759357	0.22001547778157554	0.21151289985339375	0.3681542510668962	0.27165246468850607	0.20076669292935145	0.4350223131722583	0.2512462002179368	0.1977935497860344	0.46472541299102854
2	0.0338983050847457	0.30804973943922515	0.4942226156823989	0.52460312271237	0.2974140706096924	0.6301338274092088	0.9620145065364542	0.2761718178199115	0.7171981475511793	1.371299265683012	0.23563973047214343	0.44321670213497183	1.3666278698105252	0.30687290494840447	0.4739721592528127	1.3734377718136253	0.24947707341640757	0.7950916809030251	1.4308098463023153	0.08866957071668147	0.5093403619507599	0.5232448084767798	0.08593090772005492	0.6461919037918933	0.9557647825520963	0.1006960329014493	0.7165970383447658	1.3581331004826498	0.06494077836005265	0.4497068601134232	1.3602229733761402	0.007540689102969478	0.5472554661121124	1.3822964063372232	0.12271863670114908	0.7936560012288298	1.4359540828570634	0.22491056955754463	0.46154407818545506	-0.1382689655238981	0.26233248349151284	0.37414649319205673	-0.38412423416813757	0.24398488537259444	0.32559835979993473	-0.2457804535624734	0.38640938050922125	0.46355696205820623	-0.04700490954262197	0.4448754171386934	0.4413915578889257	0.23731315191997449	0.242934533276853	0.3068212033809605	0.3632725237745534	0.16513057406148443	0.23486712002531773	0.3594928231680626	0.19967134551856341	0.22688631392515363	0.43286672359270867	0.1680927248544105	0.2490551711732935	0.4260557781272615	0.031546191937007514	0.47679501069974983	-0.0662947654945129	-0.02020814911171016	0.40456542733634443	0.20128142671507598	0.1406765011916466	0.24069059261626521	0.3615080437745527	0.21977810030995404	0.20952392384544496	0.3674343502841924	0.2668534357580925	0.19145634154995209	0.43136004422253504	0.247676456092167	0.1976777645027641	0.46236296491449624
3	0.0508474576271186	0.3093995537821187	0.4949659274362204	0.5260628445168247	0.29743595447275867	0.6301174914861216	0.9619748170437288	0.2772650261937874	0.7175251459366782	1.3714227246305062	0.23666714495982943	0.44643371528830794	1.3680081092322947	0.3074566336499706	0.47435543528890695	1.3735449261897037	0.249704319301563	0.795522238832604	1.4318076580042263	0.08973370141389694	0.5083988524145955	0.5226874217999117	0.08624419557691376	0.6474962133551055	0.9561686983942608	0.10068360133923072	0.7168929591459839	1.3569512875720067	0.0649626691755359	0.44964591197707127	1.360188341176626	0.006957868186095101	0.5437525400466698	1.3801108691501407	0.1228334743911582	0.7943067080658031	1.4371287532796204	0.22490458267857738	0.46129076677645214	-0.13824765998390398	0.26236392881007725	0.374184437814175	-0.38414885491357514	0.2452256380089402	0.32822376630732647	-0.24599184549065736	0.38636200738329024	0.46357778602187444	-0.047022275863464545	0.4473060605087049	0.4457497672996644	0.2376761252595405	0.24407790509343075	0.30548341614148994	0.3610277627055762	0.16484969182984777	0.2338220173306816	0.3591972551412085	0.20090854717582796	0.22223913823734326	0.4307486857934718	0.16449145770742235	0.25061706384803895	0.42166056163538246	0.033012307522585264	0.4739304864202235	-0.06548046237362361	-0.019158159632458992	0.4049429164163002	0.19971785390916433	0.14108963910618463	0.24206653571508857	0.36129781504575303	0.21996627254495346	0.20545280446613773	0.3678836405911036	0.2656162103270353	0.1902981355667855	0.4310109290538255	0.24713192296372435	0.1976250824069189	0.4616213969423317
4	0.0677966101694915	0.3099921483225885	0.4954522361641084	0.5271801514794802	0.2974490292889995	0.6301495300276286	0.9619619304333706	0.2776404464074726	0.7176609109033616	1.3714694256988655	0.23705402112769086	0.4478797604942254	1.3684401714682712	0.30820511185618876	0.4749456850438216	1.3736438293915816	0.24988820058702987	0.7957762867280587	1.432359523805946	0.09011874156686389	0.5092084537340613	0.5230748336083673	0.08617617586399205	0.6471048726220017	0.9560419553215747	0.10090845796762517	0.7170841840990735	1.3557854426878588	0.0649761210730049	0.4495961466179039	1.3602103034642135	0.00613579394211972	0.5395554472161775	1.377844064430998	0.12316359185378775	0.7951126119749478	1.4384691527065785	0.22524989857760902	0.4613974603317387	-0.13827573647722302	0.2627663838851431	0.37533634519143755	-0.38432556041872473	0.24543904209059786	0.3291242389492282	-0.2460726852779073	0.3862900238274019	0.4636125631023785	-0.04703431317644787	0.4490097260013746	0.45266966143242693	0.23837611163162675	0.24511011750565698	0.3019033807873748	0.35843263752920884	0.16451974339062322	0.23410222336529665	0.35914863342660736	0.19515589316677182	0.21793382926041802	0.4279883641703295	0.1642050831601452	0.25140061626738097	0.4196129863239928	0.03532723988848426	0.4706667349319489	-0.06518334730199518	-0.017725599226155943	0.40541975462174923	0.19894800897014475	0.14146698079314218	0.2431601977859398	0.36158187449533963	0.2201229442763929	0.1996629650160167	0.366777168718378	0.26595747868204556	0.1919252193752988	0.4317499746171199	0.24801080288652813	0.19760636156201394	0.4616066785612414
5	0.0847457627118644	0.3100423798279327	0.4956288603051122	0.5276170663593979	0.29745773726676555	0.6301826004552727	0.9619799065379754	0.2776029280702358	0.7176880485333851	1.3714773436999037	0.23709685470190917	0.4482060584717084	1.3683868646505002	0.3092298146574669	0.47450579362700546	1.3731583283197004	0.24994137915089681	0.7958047390218016	1.4323926055023455	0.09019236540463424	0.5101329531336531	0.5239004880689913	0.08606654209501274	0.646584351472309	0.9558763240474502	0.10115468674598771	0.7171324940301308	1.3548272946069142	0.06497506930923799	0.44955977328075947	1.3601880060192728	0.005677647122537906	0.537503025162052	1.3768745775175444	0.12344391379789378	0.7957500137375013	1.4398734974417857	0.22619854441668674	0.4627736066359622	-0.1383543799161508	0.2637773466207634	0.3782645518937019	-0.3847314747148964	0.24529230194998825	0.32910290149851135	-0.24608832444490297	0.38631205982262523	0.4636552034052497	-0.04704208291341926	0.4496599900995173	0.4577727721028891	0.2389683767029132	0.2460097585216947	0.2971948175578697	0.3565256381246358	0.16436382793959423	0.23482515818855781	0.359584305276151	0.18641975887155032	0.21529434684155427	0.42563569925243133	0.16464092795924437	0.25142649943807094	0.41859332900415036	0.03734413191601485	0.46941291433213195	-0.06521016268384246	-0.016647727157413222	0.40569716967361436	0.198762925907883	0.14160310912277893	0.24329735397412808	0.3618090053191599	0.21963672996207656	0.19635143185794873	0.36403763110298604	0.26623059519690123	0.19306779915601488	0.432135455711832	0.2489868824371812	0.19780352088728953	0.46172437717982473
6	0.1016949152542373	0.30991905784053697	0.49564385924770626	0.5276091227663943	0.2974864752954873	0.6301158233490577	0.962008522873333	0.2775174656469959	0.7176273494658418	1.3714359127391156	0.23709734269193403	0.4479672679223001	1.3683748048062898	0.31047015545116247	0.4730549702271698	1.3721931859641345	0.24991267332188183	0.7957559138467897	1.4322675007880346	0.09035575379003923	0.5106650339108136	0.5245768014202877	0.08600251584976415	0.6465352720652044	0.9558748913433138	0.1012854621442773	0.7171059092954454	1.3533356759447797	0.06481805554666958	0.44949642889380126	1.360044105696789	0.005580032303847421	0.5372584585125785	1.3768134233893095	0.12353554170310163	0.7960074987274476	1.4403401039887476	0.22760087162197035	0.4659962017469882	-0.13845235533965264	0.2650984368604338	0.38213314911063806	-0.38525282428476565	0.2451644695953246	0.32891144909058884	-0.24608770022809273	0.38674801212334264	0.46375005249431556	-0.04704617033050685	0.4493209665564004	0.45949149959540303	0.23914875089025484	0.24673856443009193	0.293674950027971	0.35646308866435794	0.1644506135057535	0.23563455445313847	0.36085289286184125	0.17950037703728505	0.21570776417579954	0.4232214833433807	0.1651978143687661	0.250096256871719	0.4185237868488586	0.03848165069537825	0.46963343516187406	-0.06530580860747032	-0.016230429034457913	0.4057781021081988	0.19880004299617426	0.14161307173205645	0.24325081177925698	0.36183190304181123	0.2179395323794767	0.1996768623595946	0.36158159129018963	0.2658216486040114	0.19326782034372625	0.43165543282368946	0.24986841327211126	0.19898224456152575	0.46196463137067373
